<svg viewBox="0 0 714.24 858.14" xmlns="http://www.w3.org/2000/svg"><g stroke="#fff" stroke-width="1.084"><path d="M497.62 550.02c.656 1.344 3.652 3.517 6.528 4.6 2.875 1.085 5.894 2.41 7.563 4.745 1.667 2.335 1.982 5.679-.553 10.8 21.815 4.304 9.436 35.16 32.9 46.399 8.275 34.982-4.3 59.664-26.17 83.93-5.314 15.048 8.713 18.91 20.688 12.239-2.874 17.64-32.644 24.087-42.29 42.8-18.564-23.232-13.476 35.629 2.64 15.83 18.119-1.276 3.432 23.452 25.959 21.38-5.958 8.488.403 20.448-14.644 24.317-.602 10.275-23.197 8.127-.76 16.677 2.48 12.204-34.104-.846-43.455 2.161-.064-13.78-28.308 15.14-16.405-9.722-26.071-20.204 9.27-36.741 9.573-58.73-8.822-20.596 20.76-25.754 6.832-38.262 2.47-2.322 3.615-4.192 3.73-5.746.115-1.553-.8-2.788-2.45-3.837-1.65-1.049-4.037-1.912-6.864-2.72-2.827-.806-6.095-1.559-9.51-2.387-3.416-.828-6.978-1.733-10.392-2.845-3.415-1.113-6.682-2.432-9.507-4.091-2.825-1.659-5.209-3.656-6.57-5.503 3.552 1.484 8.398-.716 8.828-4.325-2.087-6.502-.167-13 5.505-17.03 4.383-4.218 10.536-6.403 16.532-7.039 6.564-2.189 13.05-4.558 19.952-5.558 5.608-2.397 10.452-6.374 15.628-9.61.725-3.846-5.794-8.007-7.332-12.396-5.091-5.513-2.23-13.331-5.18-19.454-5.382-5.652-2.815-13.375-4-20.246-2.272-7.59 5.496-3.206 8.763-1.012 6.5 6.891 10.385-8.474 17.26-2.32 3.348.193 11.331 5.786 11.923 1.33-.987-10.015-7.657-18.41-14.817-24.992-4.294-5.062-.832-12.825-3.628-18.214-6.57-2.45-14.182-6.705-14.753-14.549-1.133-2.473-2.065-2.89-1.055-2.735 1.01.153 3.962.876 5.276 1.746 3.37 5.99 10.225 1.647 14.256 4.37z"/><path d="M408.73 525.46c-3.575.365-5.714 8.452-10.125 3.601-6.097-1.823-11.13 4.775-14.824 8.847-5.478 2.93-2.122 11.981-8.978 12.787-5.69 3.311-11.854 3.574-18.111 2.01-6.834 1.927-11.209-2.594-14.145-8.116-2.83-8.156-9.854.607-14.615-4.15-1.923-3.445-8.243-5.129-9.056-8.508-6.64-.174-12.498-4.503-18.608-3.183-3.81 4.49-9.583 9.118-15.815 6.785-5.985-1.361-7.623 6.684-11.822 9.552-2.304 6.758-9.654 8.12-14.98 10.908.003.006-.002.02 0 .026.007.018.021.06.026.079.005.018.023.059.026.078.003.02-.002.058 0 .078.117 1.648-3.874 5.18-8.795 7.75-5.205 2.719-12.024 5.221-18.529 5.873-6.504.651-12.701-.545-16.598-5.193-.716 3.834-2.001 6.765-3.731 8.977-1.73 2.212-3.884 3.71-6.368 4.697-2.485.987-5.293 1.46-8.273 1.618-2.981.16-6.153-.016-9.369-.287-3.217-.27-3.667-.637-6.42-.939-2.122 2.568-4.159 5.625-6.472 8.43-1.512 2.495-5.179 5.097-2.793 8.246 2.556 3.935 4.94 8.027 6.838 12.318.592 3.607-.46 7.294-.679 10.804 4.43 2.715 8.848 7.91 9.004 15.424-2.165 1.508-1.877 1.848-4.15 2.715 1.388.871 2.041 2.198 2.532 3.888 1.303 2.82 2.843 5.94 1.07 8.925-.568 1.032-1.244 4.396-2.218 4.593 6.062 1.462 8.771 2.195 14.589 5.924 25.56 17.604 6.03-21.149 12.866-26.15 16.74-6.232 29.236-7.707 24.61 9.656 26.043 17.982 43.035-47.202 52.378-7.15-3.482 6.796-13.981 7.905-14.954 8.533l-.026.026c-.004.005-.023.022-.026.027-.002.004 0 .021 0 .026v.026c.199.422 5.795.782 22.809 2.975 11.359 12.664 25.08-6.279 26.776-19.181 26.025.748 4.709 32.087 23.436 46.87 20.526-11.827 11.248 13.259 22.548 14.275 21.132 10.888 40.707-20.41 53.969 2.532-.119 3.54.807 6.488 2.74 9.577 3.553 1.484 8.391-.722 8.821-4.331-2.087-6.502-.166-13.012 5.507-17.042 4.383-4.218 10.55-6.385 16.546-7.021 6.563-2.189 13.037-4.559 19.938-5.559 5.607-2.396 10.456-6.393 15.633-9.63.724-3.845-5.797-8.007-7.334-12.395-5.092-5.512-2.243-13.32-5.193-19.443-5.382-5.652-2.808-13.38-3.993-20.251-2.271-7.589 5.5-3.211 8.769-1.018 6.5 6.892 10.376-8.451 17.25-2.296 3.349.192 11.334 5.787 11.927 1.33-.987-10.014-7.664-18.42-14.824-25.001-4.295-5.063-.831-12.828-3.628-18.216-6.569-2.45-14.174-6.692-14.746-14.537-.725-1.585-1.358-2.349-1.46-2.636.181-.05.335-.082.417-.105-.174-.026-.297-.04-.366-.026h-.026c-.005.003-.022.024-.026.026-.002.004-.024.023-.026.027v.052c.001.006-.002.02 0 .026-.549.15-1.46.406-2.375.678-5.712 2.946-12.255 2.3-18.45 1.932-6.626-.484-10.83-6.906-14.85-11.534-3.494-5.874-10.702-7.976-17.12-7.804-4.84.698-9.296 4.5-13.05-.261-1.16-1.25-2.167-1.659-3.078-1.565zM307 636.82c11.528.64-12.461 15.333 0 0zm-124.59 17.198l.053.026c-.02-.004-.034-.021-.053-.026zm.053.026a.471.471 0 00.235.053c-.08-.02-.155-.034-.235-.053z"/><path d="M176.34 618.64c-3.945-2.947-8.068-3.353-14.021-4.509-5.954-1.156-12.144-2.266-17.355-4.873-5.212-2.607-9.444-6.71-11.485-13.855 1.665-15.534 53.772 4.23 19.701-11.75 1.569-1.99 3.603-3.3 5.973-4.128 2.37-.827 5.076-1.174 7.987-1.238 2.911-.063 8.85.155 12.484.459-2.122 2.568-4.18 5.64-6.493 8.443-1.511 2.496-5.155 5.09-2.77 8.241 2.556 3.934 4.918 8.033 6.815 12.324.593 3.607-.455 7.297-.836 10.885zm5.851 35.106c-5.867-.805-15.559-2.69-21.678-3.575-6.119-.886-12.125-2.1-17.86-4.703-5.735-2.604-11.2-6.598-16.237-13.042-10.535 9.682-17.643 33.431-35.94 12.781-14.934 1.41-14.199-23.803-28.962-8.393-18.35-4.98-47.73-36.346-12.654-39.227 23.18-25.271 25.307 38.09 45.554 10.123 2.464-1.01 4.84-1.697 7.14-2.104a29.36 29.36 0 016.672-.419 29.92 29.92 0 016.265 1.012 36.32 36.32 0 015.916 2.187 50.203 50.203 0 015.625 3.11 77.612 77.612 0 015.393 3.78 141.058 141.058 0 015.22 4.193c1.718 1.439 3.417 2.904 5.107 4.354a293.56 293.56 0 005.049 4.262 104.097 104.097 0 005.052 3.913c1.691 1.219 3.392 2.337 5.113 3.314 1.721.975 3.462 1.808 5.233 2.457a25.024 25.024 0 005.412 1.35c1.84.235 3.72.245 5.648-.015 1.93-.26 6.3-1.588 8.102-2.404 1.39.871 2.052 2.192 2.542 3.881 1.304 2.82 2.844 5.934 1.07 8.917-.644 1.17-1.423 5.327-2.782 4.248zm-86.51-105.09c-1.747-1.309-4.18 1.297-6.328 1.688-1.958.356-3.719 1.825-5.483 2.53-1.758.704-4.089 2.787-5.905 3.797-2.37 1.316-1.571 2.662-2.531 5.061-.861 2.153.238 3.888.844 5.906.405 1.35 4.197 2.438 5.483 2.952 2.494.998 3.499.982 6.327 1.266 2.073.207 4.003-1.71 5.483-2.532 2.099-1.165 2.527-2.245 3.797-3.374 1.68-1.494 2.6-2.266 4.64-3.796 2.071-1.554 3.904 4.077 4.217 4.64 1.251 2.252 2.164 1.82 5.062 2.108 4.542.455 2.276.094 5.062 2.532 1.11.973.96 4.802 1.265 6.327.582 2.909 1.051 3.157 2.109 5.062.027.049 5.548.771 5.905.842.634.128 3.444 3.322 4.64 4.218 1.237.929 5.034-.584 6.327-.843 1.31-.262 4.057-1.807 5.062-2.109 2.172-.651 3.583-2.065 5.061-2.952 2.13-1.28 2.701-2.048 4.218-3.375 1.49-1.303 1.756-3.545 2.53-5.483 1.108-2.769-1.501-3.97-2.108-5.061-.735-1.324-4.967-.708-6.327-.844-2.306-.231-4.317-1.21-5.906-1.688-1.43-.43-1.97-3.631-2.53-4.64-1.138-2.048-1.91-3.607-2.953-5.483-.833-1.5-4.119-2.238-5.905-2.952-1.697-.68-5.006-.905-7.17-1.266a92.062 92.062 0 00-6.327-.844c-2.18-.217-4.304-.22-6.327-.422-2.135-.212-4.621-.84-6.75-1.265-1.586-.317-3.924 0-5.483 0zm3.821 39.27c-.91-.181-4.757.482-6.749.844-2.168.395-4.236-.255-5.905-.422-2.445-.244-4.152-.613-6.327-1.265-2.278-.684-3.893-.948-5.483-1.265-1.803-.36-5.725 2.65-7.17 3.374-2.762 1.38 2.332 5.963 4.639 8.015 1.82 1.617 3.078 3.12 4.218 4.64 1.583 2.11 1.87 2.245 3.374 3.373 1.467 1.1 3.173-1.853 4.64-2.952 2.048-1.536 4.561-2.5 6.749-3.375 1.997-.798 6.421.863 8.436 1.266 2.57.514 4.509 1.805 7.17 2.53 3.14.856 3.245-.745 5.062-2.108 3.724-2.794 2.446-3.803 2.109-7.171-.198-1.98-3.921-3.598-5.483-4.64-1.791-1.194-4.243-1.483-6.327-2.109-1.169-.35-2.047.877-2.953 1.265zm77.164 75.46c-3.471 4.003-6.16 10.632-11.036 14.488-4.354 4.23-9.846 7.09-13.674 11.958-3.62 2.893-7.691 9.605-12.831 5.61-5.613.312-6.624 8.214-12.113 8.415-4.743.827-9.758-1.26-12.48 4.032-3.089-1.606-1.994-8.822-7.334-5.149-4.136 4.607-12.742 2.834-14.12-3.514-.607-4.683 2.525-12.962-5.415-12.343-6.098-2.486-11.843-6.002-18.587-3.687-3.853-2.968-9.467-10.559-12.134-2.238-5.548-4.964-10.291 2.349-9.306 7.896.246 7.604-8.34 5.808-13.117 4.48-5.523-.733-10.675-3.402-13.72-8.161-3.09-4.648-3.904-11.04-.737-15.863 2.586-5.052-2.648-9.225-2.608-14.101-.937 1.69 10.83-3.549 15.526-5.824 5.49-.992 12.278-5.765 17.99-3.292 6.626 1.147 7.546 8.263 14.352 8.921 5.77 1.75 12.376 1.583 16.18 7.073 3.744 2.512 9.253 11.525 13.434 6.642.873-3.531 4.757-7.006 6.575-1.738 4.05 4.51 11.822 1.929 14.07-3.305 4.4-3.74 12.907-.124 12.056-8.478-1.287-6.166 6.668-10.333 10.027-4.29.761 5.734 5.935 9.316 11.278 10.525 4.398-.668 7.771 4.237 10.378 5.012-1.162-2.825-2.98-7.4 1.921-4.62 4.694 3.25 2.758-8.768 8.364-4.033 2.963.969 4.808 3.606 7.06 5.584zM257.72 555.87c-.696-.76-3.611-.787-12.725 2.064-37.131 17.302-60.585-30.726-93.639-35.43-5.106-10.812-13.718-10.578-8.312-19.62 1.078-1.804-7.328-2.4-9.24-3.925-1.91-1.525.925-4.166 4.055-10.62-5.597-21.189 12.487-2.572 20.667-5.484-.835-5.07-.882-10.503 1.898-14.341 5.02-7.071 14.474-15.94 20.88-22.777 6.931-8.466 13.536-16.763 19.643-25.154 6.106-8.392 13.575-20.6 18.514-29.441a194.55 194.55 0 006.88-13.512c4.24 2.855 8.69 4.5 13.836 3.173 3.307-1.304 5.497-1.048 5.374 2.723 2.599 5.623-1.801 11.64-4.525 16.47-2.466 4.511-2.136 11.374 3.483 13.087 4.65-.795 11.9 1.675 14.789-2.43 2.741-4.226 5.334-8.833 8.813-12.59 3.499-2.007 1.324 6.592 1.745 8.765-.573 2.784-1.28 8.47 3.124 5.162 2.16-1.712 4.628-2.814 7.125-4.142 1.134 2.18 2.82 4.38 4.65 6.494 3.023 5.537 8.695 8.614 12.858 12.807 1.304 8.035-6.132 6.161-11.275 7.85-8.832 1.524 2.591 5.656 1.628 9.872-2.803 6.652 4.933 6.416 6.146 11.306 5.235 7.69-7.26 2.966-7.163 9.053-2.89 4.518 1.286 4.967 4.767 4.587 6.115.193.288 3.088-2.317 3.845-1.61 4.862 4.315 10.947 7.151 15.19 2.032 5.41 6.683 2.767 8.707-1.081 4.93-6.567 14.27-2.088 20.513-6.24 3.826-3.926 10.825-11.032 15.673-4.47.86 1.187 1.8 2.455 2.67 3.782.872 1.328 1.675 2.714 2.264 4.14.588 1.426.963 2.89.975 4.372.012 1.483-.337 2.983-1.196 4.48-2.788 5.166-2.243 14.126-10.05 14.002-6.185.952-8.12 9.866-14.589 9.482-5.597-.88-1.601 3.624-.5 6.106 4.875 2.76 1.34 7.24-2.683 8.502-6.095-.17-11.952-4.501-18.061-3.183-3.81 4.49-9.605 9.126-15.837 6.793-5.985-1.361-7.623 6.677-11.821 9.544-2.305 6.759-9.651 8.131-14.895 10.791zm-78.948-5.95c-.694-1.043-2.235-3.433-3.374-5.484-1.433-2.579-4.924-3.32-7.171-4.218-2.856-1.142-5.084-2.686-8.014-4.64-1.951-1.301-3.82-3.076-5.905-4.64-1.866-1.399-3.195-1.552-5.062-2.952-1.598-1.199-3.056-2.187-4.64-3.375-2.194-1.645-4.702-3.411-6.748-4.64-3.077-1.845-3.057-1.686-6.749-1.686-1.302 0-4.929 2.393-6.327 2.952-2.565 1.026-4.706 1.792-7.17 2.532-2.225.666-4.348 1.962-6.328 2.952-2.908 1.454-2.71 3.515-3.796 5.905-1.152 2.535.815 3.758 2.109 5.484.838 1.116 4.566-.899 5.483-1.266 2.017-.806 2.98-1.445 4.64-2.11 2.053-.82 4.02-1.416 6.327-2.108 1.66-.498 3.119-.844 5.484-.844 2.794 0 3.46 1.047 5.061 1.688 1.139.454 2.038 4.25 2.53 5.483.88 2.195 1.232 4.045 1.688 6.327.399 1.993 1.038 3.62 1.266 5.905.2 2 1.494 3.525 2.108 5.062 1.022 2.554 3.348 1.89 5.484 2.53 1.663.5 4.74.264 6.327.422 2.14.215 4.32 2.072 5.905 2.953 1.384.769 2.705 2.3 4.64 3.374 2.167 1.204 4.067 1.853 6.326 2.531 2.51.753 3.954 1.681 5.484 2.53 1.772.985 2.813 2.99 4.218 4.219.755.66 5.232 0 6.327 0 3.29 0 5.24.32 8.436 0 1.79-.18 3.924-1.899 5.061-2.53 2.625-1.46 1.246-1.904 2.532-4.219.28-.507-5.252-3.246-5.484-3.375-1.478-.821-3.305-2.9-5.062-4.217l-5.061-3.796c-2.24-1.68-4.863-2.067-7.171-3.796-1.195-.897-2.25-1.97-3.374-2.954z"/><path d="M286.76 126.43c-8.334 13.436-44.821 62.893-10.967 56.521 15.468-15.077 30.057-32.563 16.872-52.303 1.655-7.404-3.422-7.92-5.905-4.218zm-33.744 59.052c-19.324 12.239 23.809 1.523 0 0zm27.14 222.74c-2.54.95-5.009 2.052-7.17 3.764-4.403 3.308-3.696-2.378-3.123-5.162-.422-2.174 1.753-10.772-1.745-8.765-3.48 3.757-6.072 8.364-8.813 12.59-2.889 4.105-10.14 1.635-14.79 2.43-5.619-1.712-5.948-8.576-3.482-13.087 2.724-4.83 7.124-10.848 4.525-16.47.123-3.772-2.067-4.027-5.374-2.724-5.146 1.328-9.596-.317-13.836-3.172a173.772 173.772 0 005.755-14.346c3.428-9.818 4.153-16.53 5.728-27.848 3.713-13.282 8.323-25.805 9.28-38.594-2.388-34.532 14.29-64.656 14.974-99.756 21.652-22.888 16.032 29.073 39.016 20.457-2.79-30.048 36.272-14.356 34.588 10.967-11.81 28.936 13.124 28.274 29.309 28.309 4.15 30.02-29.432 36.12-49.842 34.999-.411 18.819 21.249 33.422 9.144 51.842 20.503 13.784-40.42 25.763 1.612 31.798 16.13-3.751 22.124 13.504 39.092 9.75 2.158 3.296 1.346 3.433 3.886 6.024-3.698 4.35-6.338 9.09-8.202 14.248-.78 6.032-4.775 10.799-9.873 13.856-2.742 4.287-13.883 3.611-10.46-2.644 4.689-5.632-2.247-8.085-7.096-8.692-4.576 1.826-8.017-1.357-6.344-6.063.169-3.797 10.16-9.188 2.476-10.847-5.31 1.354-6.152-4.69-9.79-6.093-6.33-4.77-3.342 7.653-8.97 8.115-4.94.536-7.515 6.716-12.537 5.518-6.127-3.515-6.532 4.333-10.33 6.749-2.454 1.1-5.067 1.896-7.607 2.846z"/><path d="M344.12 480.84c4.529.131 6.133 6.25 10.975 5.36 4.73 1.735 7.837-3.054 11.505-3.788 2.53 3.566 4.964 8.06 10.274 6.436 5.139.278 9.722-2.735 14.162-4.908 4.283-2.147 9.205-4.477 14.011-2.549 4.815.052 7.985 3.639 11.745 6.084 4.227 3.222 9.338 5.184 14.668 5.333 2.255-2.183 2.074-7.113-.174-10.06-2.01-4.224-6.235-6.95-8.015-11.361-2.56-4.18-4.06-8.85-4.002-13.792-.332-4.203.923-11.801-5.72-9.531-3.629 1.257-8.054 8.08-11.647 4.19-3.4-5.083 3.496-7.194 4.909-11.303-.001-3.413 1.004-8.762-3.501-9.655-4.371-1.189-8.599-3.29-11.98-6.282.767-3.116 6.539-4.955 2.361-8.27-2.626-3.688-5.484-7.843-4.997-12.593l.346-.647.04-1.252c-3.418-.874-6.263-1.771-9.028-3.135-2.765-1.363-8.64-5.852-11.162-7.887-3.698 4.35-6.338 9.091-8.202 14.248-.78 6.033-4.775 10.8-9.873 13.856-2.742 4.287-13.883 3.611-10.46-2.644 4.689-5.632-2.247-8.085-7.096-8.692-4.576 1.826-8.017-1.357-6.344-6.063.17-3.797 10.16-9.188 2.476-10.847-5.31 1.354-6.152-4.69-9.789-6.092-6.331-4.77-3.343 7.652-8.971 8.115-4.94.535-7.515 6.715-12.537 5.517-6.127-3.515-6.532 4.333-10.33 6.75-2.454 1.1-5.067 1.896-7.65 2.467 1.133 2.18 2.818 4.38 4.65 6.495 3.022 5.536 8.694 8.614 12.857 12.807 1.305 8.034-6.132 6.16-11.275 7.849-8.832 1.525 2.591 5.657 1.628 9.873-2.803 6.652 4.933 6.416 6.146 11.306 5.235 7.69-7.26 2.965-7.163 9.052-2.89 4.518 1.286 4.967 4.767 4.588 6.115.192.288 3.088-2.317 3.845-1.609 4.861 4.315 10.947 7.151 15.189 2.032 5.41 6.683 2.767 8.708-1.081 4.928-6.567 14.269-2.087 20.513-6.24 3.825-3.926 10.825-11.032 15.673-4.47.86 1.188 1.799 2.455 2.67 3.783z"/><path d="M478.08 543.9c-.327.086-1.572.427-2.809.796-5.712 2.945-12.267 2.305-18.463 1.938-6.626-.483-10.81-6.909-14.83-11.539-3.492-5.872-10.715-7.982-17.132-7.81-4.839.698-9.301 4.507-13.054-.254-5.714-6.154-7.66 8.11-13.197 2.023-6.096-1.823-11.127 4.791-14.82 8.863-5.478 2.93-2.131 11.964-8.986 12.77-5.69 3.311-11.857 3.58-18.114 2.015-6.835 1.927-11.202-2.599-14.138-8.121-2.831-8.155-9.851.617-14.612-4.138-1.924-3.445-8.234-5.139-9.047-8.517 3.48-1.266 7.014-5.747 2.14-8.506-1.102-2.483-5.098-6.988.5-6.107 6.467.384 8.402-8.53 14.588-9.482 7.807.124 7.262-8.836 10.05-14.001.859-1.498 1.208-2.998 1.196-4.48-.012-1.483-.386-2.947-.975-4.373-.589-1.426-1.392-2.812-2.11-4.125 4.375.116 5.98 6.235 10.822 5.345 4.729 1.735 7.836-3.054 11.505-3.788 2.529 3.566 4.964 8.06 10.274 6.436 5.138.279 9.721-2.734 14.162-4.908 4.283-2.147 9.205-4.477 14.01-2.549 4.816.052 7.986 3.64 11.746 6.085 4.226 3.222 9.338 5.184 14.668 5.332 2.254-2.182 2.073-7.113-.175-10.059-2.01-4.224-6.235-6.951-8.015-11.362-2.56-4.18-4.06-8.849-4.002-13.792-.331-4.202.923-11.8-5.72-9.53-3.628 1.256-8.053 8.08-11.646 4.19-3.4-5.083 3.495-7.195 4.908-11.304 0-3.412 1.005-8.762-3.5-9.655-4.372-1.188-8.6-3.29-11.98-6.282.767-3.116 6.538-4.954 2.361-8.269-2.627-3.689-5.484-7.843-4.997-12.594l.346-.646.04-1.252c2.295.022 5.161.02 7.968-.412a28.432 28.432 0 008.168-2.575c2.615-1.278 5.1-2.972 7.383-5.063 2.282-2.091 4.364-4.579 6.173-7.447 1.81-2.869 3.346-6.118 4.54-9.73 4.24-4.62 10.302-9.2 16.697-14.039 6.394-4.838 13.118-9.933 18.678-15.584 5.56-5.65 11.733-15.916 12.547-23.44 5.344 1.337 9.352 5.414 11.662 10.052 5.23 6.559 11.476.433 13.96-5.242 6.54-.14 11.875 7.379 16.197 12.05 6.208 3.755-1.808 10.332 2.916 13.335 9.536 1.987-.27 9.244-1.752 14.146-3.182 3.555-13.836 8.899-4.626 12.312 6.48 2.686 10.364 8.32 11.431 15.148-.055 10.214 10.38 6.4 16.603 9.686 6.536 1.785 14.776 4.893 20.631-.112 2.603-6.114 14.952-9.816 14.5-.107 2.377 6.579 8 12.803 15.156 14.029 6.883-2.69 13.345-.67 19.276 2.539 7.262-6.327 10.588 3.626 10.086 9.753 3.02 6.774 13.044 2.097 17.206 7.931 1.284 13.967-23.242 17.932 2.9 24.69 28.882 9.717 1.179 48.616-18.094 33.982-13.438 12.244-33.906 15.835-48.7 18.622 1.53 13.727-36.115-12.398-47.195-13.256-12.807 6.333 24.68 21.938-6.328 12.654-12.44 7.356-31.153 9.963-16.45 28.682-3.693 3.195-4.513 3.764-3.209 5.149-3.814-2.709-10.669 1.633-14.04-4.356-1.314-.87-4.266-1.593-5.275-1.746z"/><path d="M427.22 297.26c-4.501 1.469-11.695 1.774-15.69 6.904-6.325 1.855-3.77 11.97-12.57 9.125-6.955 3.846-8.413 13.277-12.632 17.794-4.635 1.47 6.255 10.354-4.22 10.055-5.27-5.2-6.665-.241-8.506 4.266-7.725 2.57-16.127.916-22.457 7.452-6.893 2.57-14.006 5.773-11.266 14.537-2.717 7.734 4.82 12.285 9.309 5.369 8.988-2.504 17.133 3.59 23.617 9.155 6.019 5.47 11.989 13.208 18.152 17.265 7.592-2.931 17.79-2.04 21.687-10.534 1.203-7.047 4.31-4.409.842-18.953 3.746-7.747 14.335 3.23 17.11-7.055 2.366-10.182 14.101-7.727 20.905-12.731 5.79-7.236 13.258-14.398 14.488-24.03 1.258-8.374-2.406-22.527-13.19-20.595-8.846.97-17.817-4.17-25.579-8.024zm28.787-58.367c-.935-1.48-2.616-4.279-3.982-5.396-2.01-1.771-4.203-3.343-6.424-4.827-.88-.445-2.932-.597-4.538-1.085-6.79-3.15-7.948 5.602-11.844 8.683-1.724 5.567-5.05 10.193-10.013 13.33-1.92 5.267-2.923 11.04-1.419 16.54.843 5.333-1.832 12.304 3.3 16.067 5.268 2.995 5.876 10.724 11.63 12.382 6.2 2.88 12.681-.947 18.913-1.586 6.164 1.191 12.565.3 18.295-2.24 5.263-2.056 10.637-3.657 16.321-3.414 4.651-4.78-6.26-6.058-10.128-5.943.6-3.752 7.307-11.185 11.385-13.747-1.815-1.21-4.21-3.416-5.327-5.168-1.347-2.685-2.911-5.275-5.103-7.365-1.488-1.978-3.365-3.654-5.672-4.615-2.933-1.394-5.313-3.634-7.815-5.639-1.882-1.084-3.903-1.895-5.86-2.83-1.086-1.334-1.03-1.581-1.843-3.104"/><path d="M513.03 226.04c4.427 3.45 9.29 7.53 12.775 12.814 3.852 1.517 3.788 5.014.675 7.393-2.276 4.204-8.855 4.046-9.518 9.337.463 4.115-.047 9.038 2.428 12.618 1.93 3.402 5.085 5.788 9.02 6.214 6.526 2.357 14.113.622 20.066 4.642 3.334 2.524 9.043 2.582 10.56 6.993-.433 3.9 1.47 7.55 5.97 6.012 4.114.571 7.679 4.508 12.05 2.73 5.215 1.883 7.562-2.117 6.907-6.954-.266-4.973 2.614-8.106 7.056-9.789 3.452-2.824 8.376-3.322 12.453-1.68 5.548 3.17 11.296 6.06 16.423 9.786-1.202.51-1.56 1.478-1.41 2.736.15 1.257.811 2.803 1.71 4.502.899 1.7 2.033 3.553 3.133 5.426 1.1 1.873 2.166 3.766 2.922 5.544.756 1.78 1.204 3.444 1.07 4.86-.133 1.415-.847 2.583-2.415 3.368-1.568.785-3.99 1.187-7.538 1.074-3.06 26.645 33.86 32.472 49.428 26.2 17.193-6.486 23.611 36.436 15.185 51.46 15.908 13.079-12.296 17.154-16.028 26.15-12.828 6.384-14.1 25.8-31.478 22.01-4.162-5.833-14.187-1.157-17.206-7.93.503-6.128-2.824-16.081-10.086-9.754-5.93-3.208-12.394-5.229-19.276-2.539-7.155-1.226-12.78-7.45-15.156-14.029.452-9.709-11.897-6.007-14.5.107-5.855 5.005-14.096 1.898-20.63.112-6.224-3.286-16.659.528-16.604-9.686-1.067-6.827-4.95-12.462-11.43-15.148-9.212-3.413 1.443-8.756 4.624-12.312 1.482-4.902 11.29-12.158 1.753-14.146-4.724-3.002 3.292-9.579-2.916-13.334-4.322-4.671-9.658-12.19-16.198-12.051-2.482 5.675-8.73 11.801-13.959 5.243-2.31-4.64-6.318-8.715-11.662-10.052.088-5.718-.32.273-.32.273.408-5.99.284-10.707-4.908-19.522-5.996-14.385 6.86-7.805 10-11.13 4.791-3.103 12.015.1 16.528-3.696 5.03-2.018 3.97-11.432-2.254-9.88-5.07-.035-8.285-5.733-3.504-8.707 1.412-2.103 1.23-4.102.679-3.692-1.769-1.163-4.163-3.369-5.28-5.12-1.347-2.686-2.911-5.276-5.104-7.366-1.488-1.978-3.364-3.654-5.67-4.615-2.935-1.394-5.314-3.634-7.816-5.639-1.882-1.084-3.903-1.895-5.86-2.83-1.086-1.334-1.03-1.581-1.781-3.125 1.844-3.81 1.981-2.798 6.568-3.258 3.251-.324 5.83 1.324 8.51 2.128 3.343 1.003 5.442-1.25 7.98-2.66 1.829-1.016 3.602-3.202 4.787-4.255 1.192-1.06 3.19 0 4.787 0 2.312 0 3.704 2.866 5.85 3.724.878.35 6.484-2.806 7.447-3.191 3.074-1.23 6.147-2.246 8.51-3.192 1.246-.498 1.991-1.3 2.651-2.175z"/><path d="M619.95 286.19c-5.186-3.764-10.933-6.653-16.481-9.824-4.077-1.64-9.001-1.143-12.453 1.681-4.441 1.683-7.321 4.816-7.055 9.79.655 4.835-1.693 8.836-6.908 6.953-4.37 1.778-7.935-2.159-12.05-2.73-4.5 1.537-6.403-2.112-5.97-6.012-1.516-4.41-7.225-4.47-10.56-6.993-5.953-4.02-13.54-2.285-20.065-4.642-3.936-.427-7.09-2.813-9.02-6.215-2.476-3.579-1.966-8.503-2.429-12.618.664-5.29 7.242-5.132 9.519-9.336 3.113-2.379 3.176-5.876-.676-7.393-3.485-5.284-8.348-9.365-12.77-13.322.656-.367 1.23-1.315 2.132-2.104 1.895-1.658 2.756-3.577 3.724-5.319.975-1.757 4.816-2.19 6.383-2.66 2.035-.61 4.33-3.897 5.319-4.787 1.94-1.747 3.216-2.46 4.787-4.255 2.548-2.912 2.782-2.455 6.383-4.255 3.484-1.742 5.088 2.303 6.915 3.723 3.2 2.489 3.588 1.45 7.446 1.064 4.047-.404 4.25-2.35 6.383-4.787 1.428-1.632 2.154-3.984 3.191-5.851 1.216-2.188 1.577-3.144 2.66-5.85 1.389-3.471-1.844-3.713-4.255-5.32-3.324-2.216-4.724-3.88-6.915-6.383-2.045-2.338-.786-6.503-.532-9.042.22-2.197-1.104-4.989-1.595-7.448-.66-3.298-3.649-4.199-5.852-5.85-1.713-1.285-3.308-2.296-4.066-3.667 2.733.174 6.05.447 8.983-.333 1.604-4.832.032-11.398 3.17-16.438 1.61-6.148 7.717-8.642 10.93-13.647 4.313-6.026 14.092-4.616 16.621 2.17-2.083 8.577 9.75 4.773 9.91 11.935 1.531 6.448 8.488 11.384 14.646 7.097 5.4-2.802 12.989-1.958 15.27 4.424 4.961 5.798 10.698 10.934 15.579 16.834 4.348 6.219 9.432 11.647 15.508 16.191 6.317 4.511 6.85 13.851 13.79 17.26 8.828 2.607-1.311 10.692 4.04 15.553.974 6.543 6.745 7.554 12.504 9.758-5.036 14.792-6.088 27.622-4.535 47.568 4.938 32.73-38.738-1.775-55.677 14.763-2.98-.431-4.906-.306-6.047.241"/></g><g stroke="#fff"><path d="M-314.44-89.999c1.936-2.213-5.198 2.959-8.081 3.535-2.375.475-4.851 1.98-7.576 2.526-2.772.554-5.353.273-8.082 0-2.207-.22-5.626.505-8.08.505-3.212 0-4.95.879-7.072 1.515-1.027.308-3.093 5.265-3.535 6.061-.644 1.159.346 5.986.505 7.576.392 3.922 4.343 1.738 6.566 1.515.528-.052 3.256-4.173 3.535-4.545 1.653-2.204 4.123-1.288 6.566-2.02 2.523-.757 4.784-.553 7.071-1.01 2.495-.5 4.244-1.8 6.061-2.526 2.312-.925 3.773-2.347 5.556-3.536 2.02-1.346 2.718-1.734 5.05-3.03 1.947-1.082 5.234-.505 7.577-.505 1.882 0-.673-3.704-1.01-5.556-.476-2.62-4.303-.43-5.05-.505zm-139.4 18.183c-.581-3.197-5.597.466-6.06.505-1.714.143-1.826 5.59-2.021 6.566-.337 1.682 2.522 5.65 3.03 6.566 1.074 1.932 5.8 2.498 7.576 3.03 3.079.924 4.254-1.297 6.061-2.02 1.735-.694 3.4-2.676 4.546-3.535 1.716-1.287 3.614-2.232 5.05-3.03 2.224-1.236 4.248-1.456 7.072-2.021.258-.052 6.888 1.984 7.07 2.02 2.046.41 6.709-1.24 8.082-1.515 1.804-.36 4.844-1.504 6.566-2.02 2.098-.63 4.186-.953 6.06-1.515 2.333-.7 5.486.296 7.577.505 1.756.175 5.275-.83 7.071-1.01 2.413-.242 3.699-1.494 5.556-2.526 2.173-1.207-4.129-3.048-6.566-3.535-2.714-.543-5.328-1.015-8.081-1.516-2.743-.498-5.539.251-8.082.505-2.241.225-5.07 1.52-7.576 2.02-2.308.462-5.213 0-7.576 0-2.922 0-5.036.503-7.576 1.01-2.507.502-4.813 2.563-6.566 3.536-2.737 1.521-6.45 2.087-9.596 3.03-2.756.827-5.89-.57-8.082-1.01-2.684-.536-1.74-1.988-3.535-4.04zm-22.23 8.586c.167-.935-2.906 2.513-3.955 3.33-2.406 2.567-5.436 4.432-8.862 5.277-3.634.871-2.484 5.82-4.358 8.177-3.724.988-7.223-1.724-10.98-1.573-3.302-.777-6.114.562-7.652 3.612-1.856 3.26-6.033 3.068-9.173 4.188-4.91.916-9.882 1.585-14.62 3.253-4.23 1.198-6.179 3.636-10.451 4.756-3.424.494-4.7 8.439-6.6 8.298-3.169 1.959-6.84-3.227-7.104-5.742 1.04-2.89 2.583-6.546 5.434-8.042 6.436-3.966 11.236-9.35 18.743-11.246 4.805-1.725 9.618-3.428 14.563-4.728 5.394-1.848 11.229-1.105 16.73-2.49 3.713-.943 7.075-2.892 10.737-4.009 5.446-2.563 11.015-5.158 16.972-6.23 1.255.319-1.044 2.495.577 3.169zm-79.8 49.498c-4.023.189-3.282.837-4.546 5.05-1.607 5.358 2.859.477 3.03.506 3.885.647 1.3-4.476 1.516-5.556zm25.76 15.657c2.007.334-2.525 3.522-2.525 5.556 0 4.869 4.969-2.417 5.05-2.526 1.442-1.922-2.25-2.7-2.525-3.03zm-43.44-17.173c.53-1.379-2.131.635-2.728.885-2.522 1.653-5.4 2.901-7.281 5.356-2.353 3.04-5.575 5.175-8.48 7.632-3.236 2.097-7.648 1.92-10.313 4.961-2.009 2.063-4.592 3.479-6.617 5.509-1.967 3.016-3.759 6.156-5.998 8.992-.48 2.33 3.03 2.777 4.673 3.5 2.43.647 4.107-.12 6.534-1.492 3.634-2.847 4.544-2.392 5.551-4.46 4.071-3.837 2.313-4.354 5.005-6.177 2.04-1.023 3.753-2.377 3.293-4.889.339-1.94-.355-4.228.895-5.897 2.16-.846 4.663-.501 6.866-1.54 2.29-.519 5.042-.4 6.568-2.525 1.54-2.026 3.75-3.54 4.654-6.014 1.389-1.51 1.106-3.253-1.147-3.313-.5-.146-1.015-.276-1.475-.528zm249.43-11.253c.25-.628 4.451.13 4.628 1.014.754 3.77 1.95 5.405 0 8.917-1.362 2.451-1.396 6.844-2.548 8.917-1.71 3.078-2.419 4.584-4.458 7.643-1.13 1.694-5.266 4.244-4.459 8.28.389 1.943 2.326 8.169 1.911 9.554-.384 1.28-.976 5.21-2.548 7.006-1.902 2.175-2.858 4.312-4.458 6.37-.818 1.05-4.652 3.798-4.459 5.732.295 2.942-.438 5.294 2.548 8.28 2.22 2.219 4.498 5.867 7.006 6.37 3.725.744 9.08.717 11.465 1.91 3.17 1.584 4.398.4 7.006 5.095.957 1.721.408 2.385 1.09 3.322.68.936 2.591 2.146 4.643 3.684 2.638 1.979 6.216 3.057 7.006 7.007.589 2.944 2.174 6.287 1.91 8.917-.303 3.041-1.812 8.028.638 10.828 2.623 2.997 4.3 4.99 8.28 7.643 2.887 1.925 6.757 2.214 5.095 6.37-1.297 3.24-1.729 4.385-3.184 7.005-1.243 2.236-2.112 5.053-3.822 7.006-2.555 2.92-2.798 5.248-7.643 5.733-4.62.462-5.086 1.706-8.917-1.274-2.187-1.7-4.108-6.545-8.28-4.459-4.312 2.156-4.592 1.608-7.643 5.096-1.881 2.15-3.409 3.004-5.733 5.095-1.183 1.065-3.931 5.001-6.369 5.733-1.876.562-6.474 1.08-7.643 3.184-1.159 2.086-2.19 4.385-4.459 6.37-1.08.945-1.767 2.08-2.558 3.127s-1.683 2.009-3.174 2.605c-2.831 1.132-6.51 2.349-10.19 3.822-1.154.461-7.868 4.241-8.918 3.821-2.57-1.028-4.238-4.458-7.006-4.458-1.91 0-4.304-1.27-5.732 0-1.418 1.26-3.542 3.878-5.733 5.095-3.039 1.688-5.551 4.386-9.554 3.185-3.21-.963-6.297-2.937-10.19-2.548-5.494.55-5.658-.662-7.792 3.874-1.12-1.772-3.133-5.123-4.768-6.462-2.407-2.12-5.033-4.003-7.693-5.78-1.053-.533-3.51-.714-5.151-1.261 4.62-.693-9.719-2.654-12.312-2.975-7.162-1.941-14.303.094-20.45 3.859-6.057 6.53-10.145-2.323-15.917-3.884-6.169-4.334-14.071 1.01-20.332-3.363-3.884-4.985-10.91-11.712-2.24-16.048 3.572-5.823 5.777-12.283 4.908-19.168-.652-4.117-.635-9.406-1.453-13.855-4.358-8.246 1.842-16.486-6.127-23.076-5.142-10.12 6.978-17.52 5.95-26.624 1.509-4.848 2.394-8.78 4.298-13.534 1.919-4.793 2.186-10.036 4.291-14.879 4.963-5.982 12.896-8.66 18.47-14.129 4.597-7.513 9.045-15.268 19.01-16.63 9.94-3.172 18.386-9.4 28.362-12.417 6.67-3.849 12.815-9.366 20.436-11.12 8.902 1.29 14.55-5.44 21.91-8.665 8.847-2.84 18.472-.675 27.144-4.106 12.75-5.407 15.206 11.75 14.12 20.56 4.523 3.14 15.273 2.663 21.79 2.687z" transform="matrix(.79528 0 0 .82457 801.34 111.1)" stroke-width="1.25"/><path d="M595.45 24.392c1.212-1.257-2.678 2.221-4.017 3.332-1.24 1.028 5.122 1.666 5.624 1.666 3.135 0 1.187-1.846 2.41-3.748.775-1.206-2.678-.833-4.017-1.25zm-15.665 3.748c.86-1.338-6.146.275-6.829.417-1.42.294 1.252 2.847 2.41 3.748.778.605 4.432-.293 5.624-.417 3.48-.36 1.818-2.153 2.812-3.331.886-1.05-2.678-.278-4.017-.417zm-26.096 134c-.542-.772-.106-1.32-.866-2.738-2.075-3.872-3.052-2.895-5.572-4.202-1.897-.984-6.155-.961-9.118-1.576-1.994-.413-3.807-3.422-5.572-5.252-2.374-2.462-1.792-4.4-2.026-6.827-.154-1.594 2.896-3.86 3.546-4.727 1.272-1.696 2.033-3.459 3.546-5.252 1.25-1.48 1.72-4.72 2.026-5.777.33-1.142-1.21-6.275-1.52-7.877-.642-3.328 2.648-5.43 3.546-6.828 1.622-2.522 2.186-3.764 3.546-6.302.916-1.71.943-5.331 2.026-7.353 1.551-2.895.6-4.244 0-7.353-.14-.728-3.482-1.353-3.844-1.063.526-3.767-9.967-1.4-10.94-5.986-7.05-4.491 5.903-9.042 2.4-11.366-8.019-3.406 1.31-6.114 5.397-4.565 6.248 5.286 18.275 8.72 21.94-1.773 6.575-6.072 16.42-2.021 24.41-3.453 24.332-8.202 62.004-25.276 61.054 16.66 10.154 25.37 39.885 6.85 39.315 33.828 33.503 4.987 3.831 48.485 18.101 70.903-3.258 17.523-11.187 33.833-17.348 48.207-5.485-2.176-10.98-3.173-11.909-9.634-5.096-4.8 4.56-12.783-3.847-15.356-6.61-3.366-7.116-12.588-13.133-17.04-5.785-4.488-10.627-9.849-14.768-15.989-4.648-5.825-10.11-10.897-14.836-16.62-2.172-6.302-9.398-7.135-14.54-4.368-5.865 4.232-12.49-.641-13.949-7.008-.152-7.071-11.42-3.316-9.436-11.785-2.41-6.7-11.722-8.092-15.828-2.141-3.061 4.94-8.876 7.403-10.408 13.474-2.99 4.976-1.492 11.459-3.019 16.23-2.794.77-5.952.5-8.735-.253" stroke-width="1.084"/></g></svg>