<svg height="100" width="100" xmlns="http://www.w3.org/2000/svg" viewBox="0 0 128 128"><linearGradient id="gradient" gradientTransform="rotate(45)"><stop offset="0%" stop-color="#1C5677"/><stop offset="80%" stop-color="#2b80b152"/></linearGradient><path fill="url(#gradient)" fill-opacity=".4" d="M121.4 77.1c-4.9-2.3-8.3-7.3-8.3-13.1s3.4-10.8 8.4-13.1c3-1.4 4.6-4.6 3.5-7.7-.9-2.7-2-5.3-3.3-7.8-1.4-2.9-4.8-4.1-7.9-3-5 1.7-10.8.6-14.8-3.4s-5.2-9.8-3.4-14.8c1-3-.1-6.4-3-7.8C90 5.1 87.3 4 84.7 3.1c-3-1-6.2.5-7.7 3.3-2.4 4.6-7.2 7.7-12.8 7.7S53.8 11 51.4 6.4c-1.5-2.8-4.7-4.3-7.7-3.3C41.1 4 38.5 5 36 6.3c-2.8 1.4-4.2 4.6-3.3 7.6 1.5 4.9.3 10.5-3.6 14.3-3.9 3.9-9.5 5.1-14.4 3.6-3.1-.9-6.4.4-7.9 3.3-1.2 2.5-2.3 5-3.2 7.6-1 2.9.4 6.1 3.1 7.6 4.5 2.4 7.6 7.2 7.6 12.7 0 5.7-3.3 10.6-8 12.9-2.8 1.4-4.2 4.5-3.3 7.4.8 2.6 1.8 5.2 3 7.7 1.4 3 4.9 4.4 8.1 3.5C19 93 24.5 94.2 28.4 98c4.1 4.1 5.2 10 3.3 15.1-1.1 2.9.1 6.2 2.8 7.7 2.6 1.4 5.3 2.5 8.1 3.5 3 1.1 6.2-.4 7.5-3.3 2.3-4.8 7.3-8.2 13-8.2 5.8 0 10.8 3.4 13.1 8.4 1.4 3 4.7 4.7 7.8 3.7 2.7-.9 5.4-1.9 7.9-3.2 2.9-1.4 4.1-4.8 3-7.8-1.9-5.1-.8-11.1 3.3-15.2s10.2-5.2 15.3-3.3c3.1 1.2 6.6 0 8.1-2.9 1.3-2.5 2.4-5.1 3.3-7.8 1-3-.6-6.3-3.5-7.6zM64 95.2c-17.2 0-31.2-14-31.2-31.2s14-31.2 31.2-31.2 31.2 14 31.2 31.2-14 31.2-31.2 31.2z"/></svg>