<svg height="50" width="50" fill="#008c8a" xmlns="http://www.w3.org/2000/svg" viewBox="0 0 68 48"><path fill-rule="evenodd" d="M.244 2.958C-.483 1.625.482 0 2 0h20a2 2 0 011.756 1.042l12 22a2 2 0 010 1.916l-12 22A2 2 0 0122 48H2C.482 48-.483 46.375.244 45.042L11.722 24 .244 2.958zm15.512 20.084a2 2 0 010 1.916L5.369 44h15.444l10.909-20-10.91-20H5.37l10.387 19.042zM32.244 2.958C31.517 1.625 32.482 0 34 0h20a2 2 0 011.756 1.042l12 22a2 2 0 010 1.916l-12 22A2 2 0 0154 48H34c-1.518 0-2.483-1.625-1.756-2.958L43.722 24 32.244 2.958zm15.512 20.084a2 2 0 010 1.916L37.369 44h15.444l10.909-20-10.91-20H37.37l10.387 19.042z"/></svg>