<svg height="100" width="100" fill="#008c8a" xmlns="http://www.w3.org/2000/svg"><path fill="none" d="M39.356 39.179l-20.369 42.97c-.082.174-.008.249.166.166l42.97-20.369c-3.976-1.429-8.884-4.713-13.469-9.298-4.585-4.586-7.869-9.493-9.298-13.469zm13-30.089L52 10.576c-.012.051.014.07.059.042l1.298-.806 1.303.798c.045.027.071.008.058-.043l-.366-1.484 1.162-.993c.04-.034.03-.065-.023-.069l-1.523-.111-.585-1.412c-.02-.048-.053-.048-.072 0l-.576 1.415-1.525.122c-.052.004-.062.035-.022.069l1.168.986zm.997-.328zm-20.442 8.644l2.05-.491 1.359 1.611c.047.055.089.042.095-.031l.166-2.101 1.952-.795c.067-.027.067-.072 0-.1l-1.947-.807-.153-2.102c-.005-.072-.048-.086-.095-.031l-1.37 1.602-2.047-.504c-.07-.017-.097.019-.059.081l1.101 1.798-1.112 1.791c-.037.06-.01.096.06.079zm2.502-1.867z"/><path fill="none" d="M59.612 57.792c-1.669-2.707-4.162-5.824-7.221-8.882-3.059-3.059-6.175-5.551-8.882-7.221 1.669 2.707 4.163 5.824 7.221 8.882s6.175 5.552 8.882 7.221zm14.96-22.555l2.589-.62 1.717 2.035c.059.07.113.052.12-.039l.21-2.654 2.465-1.004c.085-.034.085-.091 0-.126l-2.459-1.02-.193-2.655c-.007-.091-.061-.109-.12-.039l-1.73 2.023-2.585-.637c-.089-.022-.122.024-.074.102l1.39 2.27-1.404 2.261c-.048.078-.015.124.074.103zm3.159-2.358zm4.532-22.942l-.356 1.486c-.012.051.014.07.059.042l1.298-.806 1.303.798c.045.027.071.008.058-.043L84.26 9.93l1.162-.993c.04-.034.03-.065-.023-.069l-1.524-.111-.585-1.412c-.02-.048-.053-.048-.072 0l-.578 1.417-1.523.121c-.052.004-.062.035-.022.069l1.168.985zm-12.625 8.49l2.589-.62 1.717 2.035c.059.07.113.052.12-.039l.21-2.654 2.466-1.004c.085-.034.085-.091 0-.126l-2.459-1.02-.193-2.655c-.007-.091-.061-.109-.12-.039l-1.73 2.023-2.585-.637c-.089-.022-.122.024-.075.102l1.39 2.27-1.404 2.261c-.048.078-.015.124.074.103zm3.16-2.358zm-31.09 18.203c-.658.658-.667 1.884-.136 3.48 3.869 1.528 8.528 4.714 12.896 9.081 4.367 4.367 7.553 9.027 9.081 12.896 1.596.531 2.822.522 3.48-.136 2.009-2.009-2.03-9.307-9.022-16.298-6.992-6.993-14.289-11.032-16.299-9.023zm44.758 31.04l-1.947-.807-.153-2.102c-.005-.072-.048-.086-.095-.031l-1.37 1.602-2.047-.504c-.07-.017-.097.019-.059.081l1.101 1.798-1.112 1.791c-.038.061-.012.098.058.081l2.05-.491 1.359 1.611c.047.055.089.041.095-.031l.166-2.101 1.952-.795c.068-.03.069-.075.002-.102zm-3.121.04zm2.349-18.924l-1.524-.111-.585-1.412c-.02-.048-.053-.048-.072 0l-.576 1.415-1.523.121c-.052.004-.062.035-.022.069l1.168.985-.356 1.486c-.012.051.014.07.059.042l1.298-.806 1.303.798c.045.027.071.008.058-.043l-.366-1.484 1.162-.993c.039-.033.028-.063-.024-.067zm-2.138.74z"/><path d="M42.746 13.26c2.934.855 2.083 3.7 1.808 6.407-.446 4.389-.622 6.938 3.485 9.355a.734.734 0 10.603-1.339c-4.326-2.538-2.517-6.077-2.381-10.324.094-2.925-.249-4.671-3.191-5.531a.734.734 0 10-.324 1.432zm-7.333 2.279zm14.828-6.313l.476.402-.145.606c-.314 1.312 1.115 2.343 2.261 1.632l.529-.329.531.325c1.15.704 2.573-.337 2.251-1.646l-.149-.605.473-.405c1.031-.881.483-2.551-.87-2.649l-.621-.045-.239-.575c-.52-1.253-2.277-1.247-2.788.009l-.235.577-.621.049c-1.352.107-1.889 1.779-.853 2.654zm.969-1.191l1.523-.121.576-1.415c.02-.049.052-.049.072 0l.585 1.412 1.524.111c.052.004.062.035.023.069l-1.162.993.366 1.484c.013.051-.014.07-.058.043l-1.303-.798-1.298.806c-.045.028-.071.009-.059-.042l.356-1.486-1.168-.986c-.039-.035-.029-.066.023-.07zm32.346 39.133zm.385 7.872c-4.248.137-7.787 1.945-10.324-2.381a.734.734 0 10-1.339.603c2.418 4.108 4.966 3.931 9.355 3.485 2.707-.275 5.552-1.127 6.407 1.808a.735.735 0 001.432-.324c-.86-2.942-2.606-3.285-5.531-3.191zm3.087 8.916l-1.111-.461-.087-1.199a1.515 1.515 0 00-2.675-.879l-.781.914-1.168-.288c-1.329-.327-2.377 1.106-1.662 2.273l.628 1.025-.635 1.022c-.722 1.162.317 2.602 1.648 2.283l1.169-.28.776.919a1.515 1.515 0 002.681-.862l.095-1.199 1.114-.454c1.274-.518 1.28-2.287.008-2.814zm-.563 1.456l-1.952.795-.166 2.101c-.006.072-.049.086-.095.031l-1.359-1.611-2.05.491c-.07.017-.097-.02-.058-.081l1.112-1.791-1.101-1.798c-.038-.062-.011-.098.059-.081l2.047.504 1.37-1.602c.047-.055.09-.041.095.031l.153 2.102 1.947.807c.066.029.065.074-.002.102zM33.253 18.834l1.169-.28.776.919a1.515 1.515 0 002.681-.862l.095-1.199 1.114-.453a1.515 1.515 0 00.009-2.816l-1.111-.461-.087-1.199a1.515 1.515 0 00-2.675-.879l-.781.914-1.168-.288c-1.329-.327-2.377 1.106-1.662 2.273l.628 1.026-.634 1.022c-.724 1.162.315 2.602 1.646 2.283zm-.389-5.097c-.038-.062-.011-.098.059-.081l2.047.504 1.37-1.602c.047-.055.09-.041.095.031l.153 2.102 1.947.807c.067.028.067.073 0 .1l-1.952.795-.166 2.101c-.006.072-.048.086-.095.031l-1.359-1.611-2.05.491c-.07.017-.097-.02-.058-.081l1.112-1.791-1.103-1.796zm20.489-4.975zM63.486 37.74a.734.734 0 00.833-.62c.99-4.822 5.104-8.281 9.574-9.834 4.774-1.66 6.501-1.686 10.347-5.618 3.004-3.071 5.326-7.229 6.669-11.303a.734.734 0 00-1.407-.417c-1.269 3.835-3.486 7.805-6.313 10.695-3.655 3.737-5.259 3.685-9.778 5.256-5.018 1.745-9.46 5.614-10.544 11.008a.734.734 0 00.619.833zm-23.854-5.544a3.402 3.402 0 00-.791 1.27l-.02-.014-22.488 47.439c-.505 1.065-.378 2.133.126 2.949-2.49 1.285-3.658 2.749-4.757 5.448-.832 2.043-1.57 3.37-3.723 4.275a.734.734 0 00.425 1.405c6.049-2.479 2.945-7.096 9.16-10.043a.244.244 0 00.024-.01c.799.441 1.812.531 2.823.052l47.703-22.613-.005-.006c.377-.17.711-.395.996-.68 3.156-3.156-.883-12.312-9.022-20.451-8.138-8.138-17.295-12.177-20.451-9.021zM19.153 82.314c-.174.082-.248.008-.166-.166l20.369-42.97c1.429 3.976 4.713 8.884 9.298 13.469 4.585 4.585 9.493 7.868 13.469 9.298l-42.97 20.369zm24.356-40.625c2.707 1.669 5.824 4.162 8.882 7.221s5.552 6.175 7.221 8.882c-2.707-1.669-5.824-4.163-8.882-7.221s-5.552-6.175-7.221-8.882zm23.52 17.904c-.658.658-1.884.667-3.48.136-1.528-3.869-4.714-8.528-9.081-12.896-4.367-4.367-9.027-7.553-12.896-9.081-.531-1.596-.522-2.822.136-3.48 2.009-2.009 9.306 2.03 16.298 9.022 6.993 6.992 11.032 14.289 9.023 16.299zm13.119-49.52l.476.402-.145.606c-.314 1.312 1.115 2.343 2.261 1.632l.529-.329.531.325c1.15.704 2.573-.336 2.251-1.646l-.149-.605.473-.405c1.031-.881.483-2.551-.87-2.649l-.621-.045-.238-.575c-.52-1.253-2.277-1.247-2.788.009l-.236.577-.621.049c-1.352.107-1.89 1.779-.853 2.654zm.969-1.191l1.523-.121.576-1.415c.02-.049.052-.049.072 0l.585 1.412 1.524.111c.052.004.063.035.023.069l-1.16.992.366 1.484c.013.051-.014.07-.058.043l-1.303-.798-1.298.806c-.044.028-.071.009-.059-.042l.356-1.486-1.168-.986c-.041-.034-.031-.065.021-.069zm-8.319 7.187h-.001.001zM55.769 32.328a.734.734 0 101.379-.503c-2.191-7.765 1.22-7.983 5.5-12.982 2.926-3.417 2.468-5.775.941-9.669a.734.734 0 00-1.322.638c1.634 4.158 1.559 5.825-1.671 9.06-4.779 4.788-6.895 6.111-4.827 13.456zm36.359 5.383c-3.894-1.527-6.252-1.984-9.669.942-4.999 4.28-5.217 7.691-12.982 5.5a.734.734 0 10-.503 1.379c7.346 2.068 8.669-.048 13.457-4.827 3.236-3.23 4.902-3.305 9.06-1.671a.734.734 0 10.637-1.323z"/><path d="M85.8 44.963l-.621-.045-.239-.575c-.52-1.253-2.277-1.247-2.788.009l-.235.577-.621.049c-1.352.107-1.89 1.78-.853 2.655l.476.402-.145.606c-.314 1.312 1.115 2.343 2.261 1.632l.529-.329.531.325c1.15.704 2.573-.337 2.251-1.646l-.149-.605.473-.405c1.032-.882.483-2.551-.87-2.65zm-.083 1.534l-1.162.993.366 1.484c.013.051-.014.07-.058.043l-1.303-.798-1.298.806c-.045.028-.071.009-.059-.042l.356-1.486-1.168-.985c-.04-.034-.03-.065.022-.069l1.523-.121.576-1.415c.02-.049.052-.049.072 0l.585 1.412 1.524.111c.053.002.064.032.024.067zm-10.803-9.833l1.708-.409 1.133 1.343a1.527 1.527 0 002.706-.87l.139-1.751 1.627-.663a1.527 1.527 0 00.009-2.842l-1.623-.673-.127-1.752a1.527 1.527 0 00-2.7-.887l-1.141 1.335-1.706-.42c-1.347-.332-2.402 1.111-1.678 2.294l.917 1.498-.927 1.492c-.732 1.179.314 2.629 1.663 2.305zm-.401-6.061c-.048-.078-.014-.124.074-.102l2.585.637 1.73-2.023c.059-.069.113-.052.12.039l.193 2.655 2.459 1.02c.084.035.084.092 0 .126l-2.465 1.004-.21 2.654c-.007.091-.061.108-.12.039l-1.717-2.035-2.589.62c-.089.021-.122-.025-.074-.102l1.404-2.261-1.39-2.271zM69.98 19.855l1.708-.409 1.133 1.343a1.527 1.527 0 002.706-.87l.139-1.751 1.627-.663a1.527 1.527 0 00.009-2.842l-1.623-.673-.127-1.752a1.527 1.527 0 00-2.7-.887l-1.141 1.335-1.706-.42c-1.347-.332-2.402 1.111-1.678 2.294l.917 1.498-.927 1.492c-.732 1.178.314 2.628 1.663 2.305zm-.401-6.062c-.048-.078-.014-.124.075-.102l2.585.637 1.73-2.023c.059-.069.113-.052.12.039l.193 2.655 2.459 1.02c.084.035.084.092 0 .126l-2.466 1.004-.21 2.654c-.007.091-.061.108-.12.039l-1.717-2.035-2.589.62c-.089.021-.122-.025-.074-.102l1.404-2.261-1.39-2.271z"/></svg>